<?xml version="1.0" encoding="UTF-8"?>
<svg width="200px" height="200px" viewBox="0 0 200 200" version="1.1" xmlns="http://www.w3.org/2000/svg" xmlns:xlink="http://www.w3.org/1999/xlink">
    <title>HidroScanPlus Logo</title>
    <g stroke="none" stroke-width="1" fill="none" fill-rule="evenodd">
        <circle fill="#2563EB" cx="100" cy="100" r="100"></circle>
        <g transform="translate(50, 50)" fill="#FFFFFF" fill-rule="nonzero">
            <path d="M80,40 C80,62.0914 62.0914,80 40,80 C17.9086,80 0,62.0914 0,40 C0,17.9086 17.9086,0 40,0 C62.0914,0 80,17.9086 80,40 Z M70,40 C70,57.6731 57.6731,70 40,70 C22.3269,70 10,57.6731 10,40 C10,22.3269 22.3269,10 40,10 C57.6731,10 70,22.3269 70,40 Z"></path>
            <rect x="35" y="25" width="10" height="50" rx="5"></rect>
            <rect transform="translate(40, 50) rotate(90) translate(-40, -50)" x="35" y="25" width="10" height="50" rx="5"></rect>
        </g>
    </g>
</svg>
