<?xml version="1.0" encoding="UTF-8"?>
<svg width="100px" height="100px" viewBox="0 0 100 100" version="1.1" xmlns="http://www.w3.org/2000/svg" xmlns:xlink="http://www.w3.org/1999/xlink">
    <title>HidroScan Logo</title>
    <g stroke="none" stroke-width="1" fill="none" fill-rule="evenodd">
        <circle fill="#2563EB" cx="50" cy="50" r="50"></circle>
        <path d="M50,20 C60.609,20 70.792,25.081 75,30 C79.208,34.919 80,44.01 80,50 C80,55.99 79.208,65.081 75,70 C70.792,74.919 60.609,80 50,80 C39.391,80 29.208,74.919 25,70 C20.792,65.081 20,55.99 20,50 C20,44.01 20.792,34.919 25,30 C29.208,25.081 39.391,20 50,20 Z" stroke="#FFFFFF" stroke-width="2.5"></path>
        <path d="M50,30 C57.304,30 64.391,33.651 67.5,37 C70.609,40.349 72.5,48.01 72.5,52 C72.5,55.99 70.609,63.651 67.5,67 C64.391,70.349 57.304,74 50,74 C42.696,74 35.609,70.349 32.5,67 C29.391,63.651 27.5,55.99 27.5,52 C27.5,48.01 29.391,40.349 32.5,37 C35.609,33.651 42.696,30 50,30 Z" stroke="#FFFFFF" stroke-width="2.5"></path>
        <path d="M38,42 L38,58" stroke="#FFFFFF" stroke-width="2.5" stroke-linecap="round"></path>
        <path d="M50,42 L50,58" stroke="#FFFFFF" stroke-width="2.5" stroke-linecap="round"></path>
        <path d="M62,42 L62,58" stroke="#FFFFFF" stroke-width="2.5" stroke-linecap="round"></path>
        <path d="M38,42 L62,42" stroke="#FFFFFF" stroke-width="2.5" stroke-linecap="round"></path>
        <path d="M38,50 L62,50" stroke="#FFFFFF" stroke-width="2.5" stroke-linecap="round"></path>
        <path d="M38,58 L62,58" stroke="#FFFFFF" stroke-width="2.5" stroke-linecap="round"></path>
    </g>
</svg>